# xmcd
#
# Track frame offsets:
#	183
#	24633
#	40193
#	65883
#
# Disc length: 1241 seconds
# Revision: 0
# Processed by: cddbd v1.5.2PL0 Copyright (c) Steve Scherf et al.
# Submitted via: dBpowerAMP V12.0
#
DISCID=3304d704
DTITLE=Black Box - Open Your Eyes
DYEAR=1991
DGENRE=House
TTITLE0=Open Your Eyes [Mirko's Mix]
TTITLE1=Open Your Eyes [Radio Edit]
TTITLE2=Open Your Eyes [Valerio's Mix]
TTITLE3=Open Your Eyes [Daniele's Mix]
EXTD=
EXTT0=
EXTT1=
EXTT2=
EXTT3=
PLAYORDER=
